<?xml version="1.0" standalone="no"?>
<!DOCTYPE svg PUBLIC "-//W3C//DTD SVG 20010904//EN"
 "http://www.w3.org/TR/2001/REC-SVG-20010904/DTD/svg10.dtd">
<svg version="1.0" xmlns="http://www.w3.org/2000/svg"
 width="500.000000pt" height="500.000000pt" viewBox="0 0 500.000000 500.000000"
 preserveAspectRatio="xMidYMid meet">
<metadata>
Created by potrace 1.16, written by Peter Selinger 2001-2019
</metadata>
<g transform="translate(0.000000,500.000000) scale(0.100000,-0.100000)"
fill="#000000" stroke="none">
<path d="M1440 2774 l0 -137 -44 41 c-90 83 -234 74 -322 -20 -49 -52 -67 -96
-72 -178 -6 -103 21 -173 88 -233 96 -87 215 -89 306 -5 l44 41 0 -47 0 -46
55 0 55 0 0 360 0 360 -55 0 -55 0 0 -136z m-96 -154 c63 -31 91 -79 91 -160
0 -55 -4 -73 -27 -107 -34 -52 -86 -77 -148 -71 -93 9 -145 75 -144 184 1 76
27 124 87 153 53 26 89 27 141 1z"/>
<path d="M1700 2550 l0 -360 55 0 55 0 0 179 c0 169 1 180 23 212 44 65 147
77 201 23 38 -39 46 -82 46 -256 l0 -158 55 0 55 0 0 168 c-1 184 -9 239 -46
294 -61 94 -222 112 -301 33 l-33 -33 0 129 0 129 -55 0 -55 0 0 -360z"/>
<path d="M3390 2774 l0 -136 -29 31 c-86 92 -254 84 -342 -16 -50 -57 -63 -98
-63 -193 1 -95 15 -137 66 -195 68 -78 175 -104 266 -65 29 13 64 37 77 54
l25 31 0 -47 0 -48 55 0 55 0 0 360 0 360 -55 0 -55 0 0 -136z m-90 -156 c152
-77 98 -338 -70 -338 -55 0 -102 27 -137 79 -18 27 -23 48 -23 98 0 68 13 104
52 140 50 47 111 54 178 21z"/>
<path d="M540 2730 c-74 -14 -141 -67 -176 -137 -27 -55 -27 -212 1 -268 29
-60 90 -113 148 -130 92 -27 157 -14 223 47 l44 41 0 -47 0 -46 55 0 55 0 0
270 0 270 -55 0 -55 0 0 -46 0 -46 -41 36 c-22 20 -50 41 -62 45 -37 13 -100
19 -137 11z m127 -101 c67 -25 105 -86 106 -169 1 -111 -74 -187 -175 -178
-61 6 -96 31 -125 88 -48 92 -17 205 67 248 49 24 84 28 127 11z"/>
<path d="M2491 2729 c-93 -18 -171 -98 -192 -197 -37 -178 63 -332 225 -349
64 -7 145 25 181 71 l25 31 0 -47 0 -48 55 0 55 0 0 270 0 270 -55 0 -55 0 0
-46 0 -46 -29 31 c-49 53 -130 76 -210 60z m149 -111 c152 -77 98 -338 -70
-338 -55 0 -102 27 -137 79 -18 27 -23 48 -23 98 0 68 13 104 52 140 50 47
111 54 178 21z"/>
<path d="M3779 2731 c-91 -19 -149 -82 -149 -164 0 -44 4 -54 35 -82 27 -26
53 -38 117 -53 113 -27 136 -37 150 -67 8 -19 8 -31 0 -50 -30 -66 -165 -55
-187 15 -5 17 -15 20 -61 20 -48 0 -54 -2 -54 -21 0 -52 57 -114 124 -134 99
-30 203 -9 255 50 37 42 46 72 36 122 -11 61 -57 97 -150 118 -44 10 -97 27
-117 37 -33 16 -38 23 -38 52 0 41 26 66 77 72 49 6 84 -13 102 -54 14 -30 17
-32 69 -32 l55 0 -6 35 c-16 98 -135 161 -258 136z"/>
<path d="M4340 2729 c-24 -5 -64 -21 -89 -37 -113 -69 -151 -245 -82 -380 66
-129 254 -172 380 -86 33 22 91 96 91 116 0 4 -24 8 -54 8 -48 0 -58 -4 -89
-35 -32 -32 -40 -35 -93 -35 -71 0 -113 23 -137 73 -33 69 -40 67 188 67 l205
0 0 58 c-1 108 -46 185 -132 225 -62 30 -126 38 -188 26z m137 -109 c36 -21
58 -52 67 -92 l6 -28 -151 0 -151 0 7 28 c16 68 73 112 145 112 27 0 58 -8 77
-20z"/>
</g>
</svg>
